<?xml version="1.0" standalone="no"?><!-- Generator: Gravit.io --><svg xmlns="http://www.w3.org/2000/svg" xmlns:xlink="http://www.w3.org/1999/xlink" style="isolation:isolate" viewBox="0 0 600 600" width="600" height="600"><defs><clipPath id="_clipPath_ayl7FXMPxia0YR3zF3UqCcsLtNFFUczl"><rect width="600" height="600"/></clipPath></defs><g clip-path="url(#_clipPath_ayl7FXMPxia0YR3zF3UqCcsLtNFFUczl)"><rect width="600" height="600" style="fill:rgb(251,242,241)"/><g style="opacity:0.35;" id="Layer 2"><g id="Group"><path d=" M 208.39 442.087 C 278.89 487.587 363.598 446.902 365.39 351.087 L 365.39 294.087" fill="none" vector-effect="non-scaling-stroke" stroke-width="100" stroke="rgb(81,214,255)" stroke-linejoin="miter" stroke-linecap="round" stroke-miterlimit="3"/><line x1="366.14" y1="139.087" x2="366.14" y2="291.087" vector-effect="non-scaling-stroke" stroke-width="100" stroke="rgb(248,118,255)" stroke-linejoin="miter" stroke-linecap="round" stroke-miterlimit="3"/></g></g><g style="isolation:isolate" id="Layer 1"><path d=" M 200.39 435.903 C 270.89 481.403 355.598 440.718 357.39 344.903 L 357.39 287.903" fill="none" vector-effect="non-scaling-stroke" stroke-width="100" stroke="rgb(81,214,255)" stroke-linejoin="miter" stroke-linecap="round" stroke-miterlimit="3"/></g><g style="isolation:isolate" id="Layer 0"><line x1="358.14" y1="132.903" x2="358.14" y2="284.903" vector-effect="non-scaling-stroke" stroke-width="100" stroke="rgb(248,118,255)" stroke-linejoin="miter" stroke-linecap="round" stroke-miterlimit="3"/><path d=" M 308.14 289.903 C 308.14 262.307 330.544 239.903 358.14 239.903 C 385.735 239.903 408.14 262.307 408.14 289.903 C 408.14 317.499 385.735 339.903 358.14 339.903 C 330.544 339.903 308.14 317.499 308.14 289.903 Z " fill="rgb(164,44,204)"/></g><g style="opacity:0.2;" id="Layer 3"><path d=" M 403.859 438.532 C 408.618 433.472 416.59 433.227 421.65 437.987 C 426.71 442.746 426.954 450.718 422.195 455.778 C 417.435 460.838 409.464 461.082 404.403 456.323 C 399.343 451.564 399.099 443.592 403.859 438.532 Z " fill="rgb(0,0,0)"/><path d=" M 391.373 465.783 C 395.022 461.903 401.133 461.716 405.013 465.365 C 408.892 469.014 409.079 475.125 405.431 479.005 C 401.782 482.884 395.67 483.071 391.791 479.423 C 387.911 475.774 387.724 469.662 391.373 465.783 Z " fill="rgb(0,0,0)"/><path d=" M 371.327 481.08 C 374.024 478.213 378.541 478.074 381.408 480.771 C 384.276 483.468 384.414 487.985 381.717 490.853 C 379.02 493.72 374.503 493.858 371.636 491.162 C 368.768 488.465 368.63 483.947 371.327 481.08 Z " fill="rgb(0,0,0)"/></g></g></svg>